<?xml version="1.0"?>
<svg width="650" height="300" xmlns="http://www.w3.org/2000/svg" xmlns:svg="http://www.w3.org/2000/svg">
 <!-- Created with SVG-edit - https://github.com/SVG-Edit/svgedit-->
 <g class="layer">
  <title>Layer 1</title>
  <text fill="#0911f2" font-family="Monospace" font-size="14" id="svg_1" stroke="#000000" stroke-width="0" text-anchor="middle" transform="matrix(1 0 0 1 0 0)" x="302.9" xml:space="preserve" y="74.5">git clone https://github.com/anshumanpatil/golang-speech-to-text.git</text>
  <text fill="#0911f2" font-family="Monospace" font-size="14" id="svg_2" stroke="#000000" stroke-width="0" text-anchor="middle" transform="matrix(1 0 0 1 0 0)" x="134.88" xml:space="preserve" y="89">cd golang-speech-to-text.git</text>
  <text fill="#0911f2" font-family="Monospace" font-size="14" id="svg_3" stroke="#000000" stroke-width="0" text-anchor="middle" transform="matrix(1 0 0 1 0 0)" x="101.27" xml:space="preserve" y="104">docker-compose up -d</text>
  <text fill="#0911f2" font-family="Monospace" font-size="14" id="svg_4" stroke="#000000" stroke-width="0" text-anchor="middle" transform="matrix(1 0 0 1 0 0)" x="63.47" xml:space="preserve" y="136">go mod tidy</text>
  <text fill="#0911f2" font-family="Monospace" font-size="14" id="svg_5" stroke="#000000" stroke-width="0" text-anchor="middle" transform="matrix(1 0 0 1 0 0)" x="134.88" xml:space="preserve" y="120">cd golang-speech-to-text.git</text>
  <text fill="#0911f2" font-family="Monospace" font-size="14" id="svg_6" stroke="#000000" stroke-width="0" text-anchor="middle" transform="matrix(1 0 0 1 0 0)" x="147.48" xml:space="preserve" y="152">pip install -r requirements.txt</text>
  <text fill="#0911f2" font-family="Monospace" font-size="14" id="svg_7" stroke="#000000" stroke-width="0" text-anchor="middle" transform="matrix(1 0 0 1 0 0)" x="118.07" xml:space="preserve" y="167.5">go run main.go -mode all</text>
  <text fill="#e53475" font-family="Monospace" font-size="16" font-style="normal" font-weight="normal" id="svg_8" letter-spacing="0" stroke="#000000" stroke-width="0" text-anchor="middle" x="325.5" xml:space="preserve" y="26.5">Run All in one - Speech Recogniser[Python] and Text Parser[Golang]</text>
 </g>
</svg>